<svg width="1040" height="1299" xmlns="http://www.w3.org/2000/svg" xmlns:xlink="http://www.w3.org/1999/xlink" xml:space="preserve" overflow="hidden"><defs><filter id="fx0" x="-10%" y="-10%" width="120%" height="120%" filterUnits="userSpaceOnUse" primitiveUnits="userSpaceOnUse"><feComponentTransfer color-interpolation-filters="sRGB"><feFuncR type="discrete" tableValues="1 1"/><feFuncG type="discrete" tableValues="0.392157 0.392157"/><feFuncB type="discrete" tableValues="0.392157 0.392157"/><feFuncA type="linear" slope="0.701961" intercept="0"/></feComponentTransfer><feGaussianBlur stdDeviation="7.63149 7.6463"/></filter><clipPath id="clip1"><rect x="1680" y="718" width="1040" height="1299"/></clipPath></defs><g clip-path="url(#clip1)" transform="translate(-1680 -718)"><rect x="1680" y="718" width="1040" height="1299" fill="#BFBFBF" fill-opacity="0.701961"/><path d="M1680 1238 1810 1238C1810 1453.11 1984.61 1627.5 2200 1627.5 2415.39 1627.5 2590 1453.11 2590 1238L2720 1238 2720 2017 1680 2017Z" fill="#FFFFFF" fill-rule="evenodd" fill-opacity="0.701961"/><text font-family="HarmonyOS Sans SC,HarmonyOS Sans SC_MSFontService,sans-serif" font-weight="700" font-size="128" transform="matrix(1 0 0 1 1943.33 1835)">不可修改</text><g filter="url(#fx0)" transform="matrix(8.00775 0 0 7.99225 1684 722)"><g><path d="M23.0402 64.5001C23.0402 41.6278 41.5459 23.0861 64.3739 23.0861L64.5013 23.0861C87.3293 23.0861 105.835 41.6278 105.835 64.5001L105.835 64.5001C105.835 87.3723 87.3292 105.914 64.5012 105.914L64.3739 105.914C41.5459 105.914 23.0402 87.3722 23.0402 64.5Z" fill="#FF6464" fill-rule="evenodd" fill-opacity="0.701961"/></g></g><path d="M1875 1237.5C1875 1058.28 2020.28 913 2199.5 913L2200.5 913C2379.72 913 2525 1058.28 2525 1237.5L2525 1237.5C2525 1416.72 2379.72 1562 2200.5 1562L2199.5 1562C2020.28 1562 1875 1416.72 1875 1237.5Z" fill="#FF6464" fill-rule="evenodd" fill-opacity="0.701961"/><g><g><g><path d="M1560.81 710.113C1560.81 874.75 1427.22 1008.22 1262.42 1008.22 1097.62 1008.22 964.032 874.75 964.032 710.113 964.032 545.474 1097.62 412.009 1262.42 412.009 1427.22 412.009 1560.81 545.474 1560.81 710.113Z" fill="#FFFFFF" fill-rule="evenodd" transform="matrix(1.00066 0 0 1 936.75 527.387)"/><path d="M0 0 0.00020709 149.105" stroke="#000000" stroke-width="52.601" stroke-linecap="round" stroke-miterlimit="8" fill="none" fill-rule="evenodd" transform="matrix(-1.00066 1.22465e-16 1.22545e-16 1 2293.02 963.497)"/><path d="M0 0 0.00020709 149.105" stroke="#000000" stroke-width="52.601" stroke-linecap="round" stroke-miterlimit="8" fill="none" fill-rule="evenodd" transform="matrix(-1.00066 1.22465e-16 1.22545e-16 1 2106.98 963.497)"/><path d="M1355.37 597.975C1356.13 663.271 1323.53 726.53 1263.64 775.919" stroke="#000000" stroke-width="52.601" stroke-linecap="round" stroke-miterlimit="8" fill="none" fill-rule="evenodd" transform="matrix(1.00066 0 0 1 936.75 527.387)"/><path d="M0.0131734 270.799C-0.752622 205.502 31.8551 142.245 91.7357 92.8592" stroke="#000000" stroke-width="52.601" stroke-linecap="round" stroke-miterlimit="8" fill="none" fill-rule="evenodd" transform="matrix(1.00066 -1.22465e-16 -1.22545e-16 -1 2106.98 1396.16)"/><path d="M217.164 6.28147C225.228 14.0279 226.034 26.4041 219.039 35.0733L217.16 37.1147 183.6 69.6656C156.349 96.118 112.148 96.1335 84.8761 69.7024 84.8646 69.6909 84.8526 69.6771 84.8388 69.6656 75.8463 60.9262 61.527 60.1125 51.5463 67.7772L49.3547 69.6656 38.1664 80.5179C29.4141 88.9773 15.2473 88.9543 6.52552 80.4651-1.41174 72.7391-2.2057 60.4999 4.67215 51.8717L6.53023 49.8303 17.7161 38.9807C44.9691 12.5288 89.1678 12.5128 116.44 38.9442 116.451 38.9556 116.465 38.9693 116.477 38.9807 125.469 47.7206 139.789 48.5316 149.769 40.8672L151.961 38.9807 185.523 6.42728C194.219-2.08699 208.386-2.15306 217.164 6.28147Z" fill-rule="evenodd" transform="matrix(-1.00066 0 0 1 2423.94 1351.4)"/><path d="M1262.42 412.009C1427.22 412.009 1560.81 545.474 1560.81 710.113 1560.81 874.75 1427.22 1008.22 1262.42 1008.22 1097.62 1008.22 964.032 874.75 964.032 710.113 964.032 545.474 1097.62 412.009 1262.42 412.009ZM1051.43 920.903C1167.96 1037.32 1356.89 1037.32 1473.42 920.903 1589.95 804.484 1589.95 615.741 1473.42 499.321ZM1473.42 499.321C1356.89 382.905 1167.96 382.905 1051.43 499.321 934.898 615.741 934.898 804.484 1051.43 920.903Z" stroke="#FF0000" stroke-width="52.601" stroke-miterlimit="8" fill="none" fill-rule="evenodd" transform="matrix(1.00066 0 0 1 936.75 527.387)"/></g></g></g></g></svg>