<svg width="1040" height="1299" xmlns="http://www.w3.org/2000/svg" xmlns:xlink="http://www.w3.org/1999/xlink" xml:space="preserve" overflow="hidden"><defs><clipPath id="clip0"><rect x="1680" y="718" width="1040" height="1299"/></clipPath></defs><g clip-path="url(#clip0)" transform="translate(-1680 -718)"><rect x="1680" y="718" width="1040" height="1299" fill="#BFBFBF" fill-opacity="0.701961"/><path d="M1680 1238 1810 1238C1810 1453.11 1984.61 1627.5 2200 1627.5 2415.39 1627.5 2590 1453.11 2590 1238L2720 1238 2720 2017 1680 2017Z" fill="#FFFFFF" fill-rule="evenodd" fill-opacity="0.701961"/><text font-family="HarmonyOS Sans SC,HarmonyOS Sans SC_MSFontService,sans-serif" font-weight="700" font-size="128" transform="matrix(1 0 0 1 1879.17 1835)">修改需申请</text><g><g><g><path d="M1560.81 710.113C1560.81 874.75 1427.22 1008.22 1262.42 1008.22 1097.62 1008.22 964.032 874.75 964.032 710.113 964.032 545.474 1097.62 412.009 1262.42 412.009 1427.22 412.009 1560.81 545.474 1560.81 710.113Z" stroke="#000000" stroke-width="52.601" stroke-miterlimit="8" fill="#FFFFFF" fill-rule="evenodd" transform="matrix(1.00066 0 0 1 936.75 527.387)"/><path d="M1262.42 583.584C1311.86 583.584 1351.94 623.574 1351.94 672.9 1351.94 703.726 1336.29 730.908 1312.47 746.958L1301.16 753.087 1322.1 836.642 1202.74 836.642 1223.68 753.087 1212.37 746.958C1188.56 730.908 1172.91 703.726 1172.91 672.9 1172.91 623.574 1212.98 583.584 1262.42 583.584Z" stroke="#000000" stroke-width="52.601" stroke-linecap="round" stroke-linejoin="round" stroke-miterlimit="10" fill="none" fill-rule="evenodd" transform="matrix(1.00066 0 0 1 936.75 527.387)"/></g></g></g></g></svg>