<svg width="1040" height="1299" xmlns="http://www.w3.org/2000/svg" xmlns:xlink="http://www.w3.org/1999/xlink" xml:space="preserve" overflow="hidden"><defs><clipPath id="clip0"><rect x="1680" y="718" width="1040" height="1299"/></clipPath></defs><g clip-path="url(#clip0)" transform="translate(-1680 -718)"><rect x="1680" y="718" width="1040" height="1299" fill="#BFBFBF" fill-opacity="0.701961"/><path d="M1680 1238 1810 1238C1810 1453.11 1984.61 1627.5 2200 1627.5 2415.39 1627.5 2590 1453.11 2590 1238L2720 1238 2720 2017 1680 2017Z" fill="#FFFFFF" fill-rule="evenodd" fill-opacity="0.701961"/><text font-family="HarmonyOS Sans SC,HarmonyOS Sans SC_MSFontService,sans-serif" font-weight="700" font-size="128" transform="matrix(1 0 0 1 1943.33 1835)">协议继承</text><g><g><g><path d="M964.032 710.113C964.032 545.474 1097.62 412.009 1262.42 412.009 1427.22 412.009 1560.81 545.474 1560.81 710.113 1560.81 874.75 1427.22 1008.22 1262.42 1008.22 1097.62 1008.22 964.032 874.75 964.032 710.113Z" stroke="#000000" stroke-width="52.601" stroke-miterlimit="8" fill="#FFFFFF" fill-rule="evenodd" transform="matrix(1.00066 0 0 1 936.75 527.387)"/><path d="M1262.42 561.204C1344.82 561.204 1411.62 627.872 1411.62 710.113 1411.62 792.354 1344.82 859.021 1262.42 859.021 1180.03 859.021 1113.23 792.354 1113.23 710.113 1113.23 664.31 1134.35 621.049 1170.5 592.828" stroke="#000000" stroke-width="52.601" stroke-linecap="round" stroke-miterlimit="8" fill="none" fill-rule="evenodd" transform="matrix(1.00066 0 0 1 936.75 527.387)"/><path d="M1262.42 561.007 1293.02 645.075" stroke="#000000" stroke-width="52.601" stroke-linecap="round" stroke-miterlimit="8" fill="none" fill-rule="evenodd" transform="matrix(1.00066 0 0 1 936.75 527.387)"/></g></g></g></g></svg>