<svg width="1040" height="1299" xmlns="http://www.w3.org/2000/svg" xmlns:xlink="http://www.w3.org/1999/xlink" xml:space="preserve" overflow="hidden"><defs><filter id="fx0" x="-10%" y="-10%" width="120%" height="120%" filterUnits="userSpaceOnUse" primitiveUnits="userSpaceOnUse"><feComponentTransfer color-interpolation-filters="sRGB"><feFuncR type="discrete" tableValues="1 1"/><feFuncG type="discrete" tableValues="0.392157 0.392157"/><feFuncB type="discrete" tableValues="0.392157 0.392157"/><feFuncA type="linear" slope="0.701961" intercept="0"/></feComponentTransfer><feGaussianBlur stdDeviation="7.63149 7.6463"/></filter><clipPath id="clip1"><rect x="1680" y="718" width="1040" height="1299"/></clipPath></defs><g clip-path="url(#clip1)" transform="translate(-1680 -718)"><rect x="1680" y="718" width="1040" height="1299" fill="#BFBFBF" fill-opacity="0.701961"/><path d="M1680 1238 1810 1238C1810 1453.11 1984.61 1627.5 2200 1627.5 2415.39 1627.5 2590 1453.11 2590 1238L2720 1238 2720 2017 1680 2017Z" fill="#FFFFFF" fill-rule="evenodd" fill-opacity="0.701961"/><text font-family="HarmonyOS Sans SC,HarmonyOS Sans SC_MSFontService,sans-serif" font-weight="700" font-size="128" transform="matrix(1 0 0 1 1815 1835)">禁止逆向工程</text><g filter="url(#fx0)" transform="matrix(8.00775 0 0 7.99225 1684 722)"><g><path d="M23.0402 64.5001C23.0402 41.6278 41.5459 23.0861 64.3739 23.0861L64.5013 23.0861C87.3293 23.0861 105.835 41.6278 105.835 64.5001L105.835 64.5001C105.835 87.3723 87.3292 105.914 64.5012 105.914L64.3739 105.914C41.5459 105.914 23.0402 87.3722 23.0402 64.5Z" fill="#FF6464" fill-rule="evenodd" fill-opacity="0.701961"/></g></g><path d="M1875 1237.5C1875 1058.28 2020.28 913 2199.5 913L2200.5 913C2379.72 913 2525 1058.28 2525 1237.5L2525 1237.5C2525 1416.72 2379.72 1562 2200.5 1562L2199.5 1562C2020.28 1562 1875 1416.72 1875 1237.5Z" fill="#FF6464" fill-rule="evenodd" fill-opacity="0.701961"/><g><g><g><path d="M1560.81 710.113C1560.81 874.75 1427.22 1008.22 1262.42 1008.22 1097.62 1008.22 964.032 874.75 964.032 710.113 964.032 545.474 1097.62 412.009 1262.42 412.009 1427.22 412.009 1560.81 545.474 1560.81 710.113Z" fill="#FFFFFF" fill-rule="evenodd" transform="matrix(1.00066 0 0 1 936.75 527.387)"/><path d="M1189.55 545.137C1241.2 545.137 1283.08 587.015 1283.08 638.671 1283.08 690.327 1241.2 732.205 1189.55 732.205 1137.89 732.205 1096.01 690.327 1096.01 638.671 1096.01 625.754 1098.63 613.451 1103.36 602.262L1104.59 600.007 1152.7 648.122C1165.49 660.907 1186.21 660.907 1199 648.122 1211.78 635.337 1211.78 614.61 1199 601.826L1150.88 553.712 1153.14 552.488C1164.33 547.754 1176.63 545.137 1189.55 545.137Z" fill-rule="evenodd" transform="matrix(1.00066 0 0 1 936.75 527.387)"/><path d="M1226.64 722.025C1213.88 709.258 1213.88 688.548 1226.64 675.775L1226.64 675.775C1239.42 663.001 1260.13 663.001 1272.9 675.775L1391.83 794.712C1404.61 807.48 1404.61 828.189 1391.83 840.963L1391.83 840.963C1379.06 853.736 1358.36 853.736 1345.58 840.963Z" fill-rule="evenodd" transform="matrix(1.00066 0 0 1 936.75 527.387)"/><path d="M1262.42 412.009C1427.22 412.009 1560.81 545.474 1560.81 710.113 1560.81 874.75 1427.22 1008.22 1262.42 1008.22 1097.62 1008.22 964.032 874.75 964.032 710.113 964.032 545.474 1097.62 412.009 1262.42 412.009ZM1051.43 920.903C1167.96 1037.32 1356.89 1037.32 1473.42 920.903 1589.95 804.484 1589.95 615.741 1473.42 499.321ZM1473.42 499.321C1356.89 382.905 1167.96 382.905 1051.43 499.321 934.898 615.741 934.898 804.484 1051.43 920.903Z" stroke="#FF0000" stroke-width="52.601" stroke-miterlimit="8" fill="none" fill-rule="evenodd" transform="matrix(1.00066 0 0 1 936.75 527.387)"/></g></g></g></g></svg>