<svg width="1040" height="1299" xmlns="http://www.w3.org/2000/svg" xmlns:xlink="http://www.w3.org/1999/xlink" xml:space="preserve" overflow="hidden"><defs><clipPath id="clip0"><rect x="1680" y="718" width="1040" height="1299"/></clipPath></defs><g clip-path="url(#clip0)" transform="translate(-1680 -718)"><rect x="1680" y="718" width="1040" height="1299" fill="#BFBFBF" fill-opacity="0.701961"/><path d="M1680 1238 1810 1238C1810 1453.11 1984.61 1627.5 2200 1627.5 2415.39 1627.5 2590 1453.11 2590 1238L2720 1238 2720 2017 1680 2017Z" fill="#FFFFFF" fill-rule="evenodd" fill-opacity="0.701961"/><text font-family="HarmonyOS Sans SC,HarmonyOS Sans SC_MSFontService,sans-serif" font-weight="700" font-size="128" transform="matrix(1 0 0 1 2071.67 1835)">署名</text><g><g><g><path d="M964.032 710.113C964.032 545.474 1097.62 412.009 1262.42 412.009 1427.22 412.009 1560.81 545.474 1560.81 710.113 1560.81 874.75 1427.22 1008.22 1262.42 1008.22 1097.62 1008.22 964.032 874.75 964.032 710.113Z" stroke="#000000" stroke-width="52.601" stroke-miterlimit="8" fill="#FFFFFF" fill-rule="evenodd" transform="matrix(1.00066 0 0 1 936.75 527.387)"/><path d="M1180.37 678.265C1180.37 632.944 1217.1 596.208 1262.42 596.208 1307.74 596.208 1344.48 632.944 1344.48 678.265 1344.48 723.586 1307.74 760.323 1262.42 760.323 1217.1 760.323 1180.37 723.586 1180.37 678.265Z" stroke="#000000" stroke-width="52.601" stroke-miterlimit="8" fill="none" fill-rule="evenodd" transform="matrix(1.00066 0 0 1 936.75 527.387)"/><path d="M1185.98 844.102 1338.86 844.102C1379.05 844.102 1411.62 876.672 1411.62 916.857L1411.62 967.974 1404.65 972.203C1362.37 995.168 1313.92 1008.22 1262.42 1008.22 1210.92 1008.22 1162.47 995.168 1120.19 972.203L1113.23 967.974 1113.23 916.857C1113.23 876.672 1145.8 844.102 1185.98 844.102Z" stroke="#000000" stroke-width="52.601" stroke-linecap="round" stroke-miterlimit="8" fill="none" fill-rule="evenodd" transform="matrix(1.00066 0 0 1 936.75 527.387)"/></g></g></g></g></svg>