<svg width="1040" height="1299" xmlns="http://www.w3.org/2000/svg" xmlns:xlink="http://www.w3.org/1999/xlink" xml:space="preserve" overflow="hidden"><defs><filter id="fx0" x="-10%" y="-10%" width="120%" height="120%" filterUnits="userSpaceOnUse" primitiveUnits="userSpaceOnUse"><feComponentTransfer color-interpolation-filters="sRGB"><feFuncR type="discrete" tableValues="1 1"/><feFuncG type="discrete" tableValues="0.392157 0.392157"/><feFuncB type="discrete" tableValues="0.392157 0.392157"/><feFuncA type="linear" slope="0.701961" intercept="0"/></feComponentTransfer><feGaussianBlur stdDeviation="7.63149 7.6463"/></filter><clipPath id="clip1"><rect x="1680" y="718" width="1040" height="1299"/></clipPath></defs><g clip-path="url(#clip1)" transform="translate(-1680 -718)"><rect x="1680" y="718" width="1040" height="1299" fill="#BFBFBF" fill-opacity="0.701961"/><path d="M1680 1238 1810 1238C1810 1453.11 1984.61 1627.5 2200 1627.5 2415.39 1627.5 2590 1453.11 2590 1238L2720 1238 2720 2017 1680 2017Z" fill="#FFFFFF" fill-rule="evenodd" fill-opacity="0.701961"/><text font-family="HarmonyOS Sans SC,HarmonyOS Sans SC_MSFontService,sans-serif" font-weight="700" font-size="128" transform="matrix(1 0 0 1 2007.5 1835)">非商用</text><g filter="url(#fx0)" transform="matrix(8.00775 0 0 7.99225 1684 722)"><g><path d="M23.0402 64.5001C23.0402 41.6278 41.5459 23.0861 64.3739 23.0861L64.5013 23.0861C87.3293 23.0861 105.835 41.6278 105.835 64.5001L105.835 64.5001C105.835 87.3723 87.3292 105.914 64.5012 105.914L64.3739 105.914C41.5459 105.914 23.0402 87.3722 23.0402 64.5Z" fill="#FF6464" fill-rule="evenodd" fill-opacity="0.701961"/></g></g><path d="M1875 1237.5C1875 1058.28 2020.28 913 2199.5 913L2200.5 913C2379.72 913 2525 1058.28 2525 1237.5L2525 1237.5C2525 1416.72 2379.72 1562 2200.5 1562L2199.5 1562C2020.28 1562 1875 1416.72 1875 1237.5Z" fill="#FF6464" fill-rule="evenodd" fill-opacity="0.701961"/><g><g><g><path d="M964.032 710.113C964.032 545.474 1097.62 412.009 1262.42 412.009 1427.22 412.009 1560.81 545.474 1560.81 710.113 1560.81 874.75 1427.22 1008.22 1262.42 1008.22 1097.62 1008.22 964.032 874.75 964.032 710.113Z" fill="#FFFFFF" fill-rule="evenodd" transform="matrix(1.00066 0 0 1 936.75 527.387)"/><path d="M1230.27 710.4C1194.14 710.388 1164.86 681.089 1164.87 644.96 1164.88 609.039 1193.86 579.848 1229.78 579.567" stroke="#000000" stroke-width="52.601" stroke-linecap="round" stroke-miterlimit="8" fill="none" fill-rule="evenodd" transform="matrix(1.00066 0 0 1 936.75 527.387)"/><path d="M0 0 130.466 0.0020709" stroke="#000000" stroke-width="52.601" stroke-linecap="round" stroke-miterlimit="8" fill="none" fill-rule="evenodd" transform="matrix(-1.00066 0 0 1 2297.82 1106.95)"/><path d="M0 0 130.466 0.0020709" stroke="#000000" stroke-width="52.601" stroke-linecap="round" stroke-miterlimit="8" fill="none" fill-rule="evenodd" transform="matrix(-1.00066 0 0 1 2232.36 1368.05)"/><path d="M1295.15 709.826C1331.28 709.837 1360.56 739.137 1360.55 775.265 1360.54 811.187 1331.56 840.378 1295.64 840.659" stroke="#000000" stroke-width="52.601" stroke-linecap="round" stroke-miterlimit="8" fill="none" fill-rule="evenodd" transform="matrix(1.00066 0 0 1 936.75 527.387)"/><path d="M0 0 52.1864 0.0020709" stroke="#000000" stroke-width="52.601" stroke-linecap="round" stroke-miterlimit="8" fill="none" fill-rule="evenodd" transform="matrix(-1.00066 0 0 1 2232.7 1237.79)"/><path d="M0 0 0.00020709 37.2762" stroke="#000000" stroke-width="52.601" stroke-linecap="round" stroke-miterlimit="8" fill="none" fill-rule="evenodd" transform="matrix(1.00066 0 0 -1 2200 1086.27)"/><path d="M0 0 0.00020709 37.2762" stroke="#000000" stroke-width="52.601" stroke-linecap="round" stroke-miterlimit="8" fill="none" fill-rule="evenodd" transform="matrix(1.00066 0 0 -1 2200 1421.96)"/><path d="M1262.42 412.009C1427.22 412.009 1560.81 545.474 1560.81 710.113 1560.81 874.75 1427.22 1008.22 1262.42 1008.22 1097.62 1008.22 964.032 874.75 964.032 710.113 964.032 545.474 1097.62 412.009 1262.42 412.009ZM1051.43 920.903C1167.96 1037.32 1356.89 1037.32 1473.42 920.903 1589.95 804.484 1589.95 615.741 1473.42 499.321ZM1473.42 499.321C1356.89 382.905 1167.96 382.905 1051.43 499.321 934.898 615.741 934.898 804.484 1051.43 920.903Z" stroke="#FF0000" stroke-width="52.601" stroke-miterlimit="8" fill="none" fill-rule="evenodd" transform="matrix(1.00066 0 0 1 936.75 527.387)"/></g></g></g></g></svg>