<svg width="2475" height="2476" xmlns="http://www.w3.org/2000/svg" xmlns:xlink="http://www.w3.org/1999/xlink" xml:space="preserve" overflow="hidden"><defs><clipPath id="clip0"><rect x="963" y="0" width="2475" height="2476"/></clipPath><linearGradient x1="3082.74" y1="2010.7" x2="1317.26" y2="464.296" gradientUnits="userSpaceOnUse" spreadMethod="reflect" id="fill1"><stop offset="0" stop-color="#FF50DC"/><stop offset="0.99" stop-color="#0096FF"/><stop offset="1" stop-color="#0096FF"/></linearGradient></defs><g clip-path="url(#clip0)" transform="translate(-963 0)"><rect x="963" y="0" width="2475" height="2476" fill="#FFFFFF" fill-opacity="0"/><path d="M2728.27 925.379C2702.48 938.246 2686.8 945.276 2672.16 953.729 2528.7 1036.51 2385.84 1120.34 2241.39 1201.07 2208.25 1216.55 2188.49 1251.26 2192.14 1287.65 2194.03 1548.15 2192.87 1807.19 2192.77 2067.04 2192.72 2084.38 2192.5 2101.41 2191.75 2128 2129.88 2093.06 2073.1 2062.04 2017.96 2029.66 1833.72 1924.07 1651.13 1817.13 1467.16 1711.98 1436.56 1698.72 1417.83 1667.42 1420.61 1634.21 1422.74 1372.99 1422.68 1111.83 1420.43 850.723 1416.58 809.945 1438.89 771.177 1476.1 754.004 1703.67 625.116 1930.2 494.409 2155.68 361.897 2182.82 341.921 2219.85 342.046 2246.87 362.205 2309.59 401.072 2373.39 436.907 2446.42 479.684L2394.48 509.658C2167.95 640.361 1941.42 771.063 1714.46 901.011 1683.83 915.048 1665.35 946.824 1668.29 980.373 1670.13 1151.56 1670.24 1322.75 1668.59 1493.94 1665.48 1523.25 1681.15 1551.35 1707.73 1564.12 1756.53 1589.69 1803.44 1618.97 1851.56 1646.14 1864.98 1653.69 1879.3 1659.32 1901.63 1669.37 1902.5 1626.61 1903.96 1591.16 1904.17 1555.62 1904.68 1409.43 1905.57 1262.83 1904.51 1116.34 1901.62 1086.86 1917.71 1058.79 1944.6 1046.33 2180.52 911.678 2415.8 775.919 2650.44 639.057 2673.02 622.565 2703.61 622.332 2726.43 638.481 2798.13 682.431 2871.33 724.104 2945.04 764.89 2967.79 774.542 2981.81 797.669 2979.81 822.298 2978.18 1098.31 2979.32 1373.55 2978.15 1649.3 2978.61 1666.03 2971.73 1682.14 2959.31 1693.37 2786.04 1794.96 2610.56 1896.21 2426.93 2002.17 2425.92 1930.71 2430.77 1865.92 2424.31 1802.44 2417.84 1738.97 2443.92 1705.01 2499.07 1678.82 2562.99 1647.97 2622.29 1607.72 2684.87 1573.82 2717.2 1559.66 2736.58 1526.15 2732.72 1491.09 2730.29 1327.27 2732.49 1163.41 2732.56 999.372 2732.44 977.907 2730.16 956.886 2728.27 925.379Z" fill="url(#fill1)" fill-rule="evenodd"/></g></svg>