<svg width="1048" height="1299" xmlns="http://www.w3.org/2000/svg" xmlns:xlink="http://www.w3.org/1999/xlink" xml:space="preserve" overflow="hidden"><defs><filter id="fx0" x="-10%" y="-10%" width="120%" height="120%" filterUnits="userSpaceOnUse" primitiveUnits="userSpaceOnUse"><feComponentTransfer color-interpolation-filters="sRGB"><feFuncR type="discrete" tableValues="1 1"/><feFuncG type="discrete" tableValues="0.392157 0.392157"/><feFuncB type="discrete" tableValues="0.392157 0.392157"/><feFuncA type="linear" slope="0.701961" intercept="0"/></feComponentTransfer><feGaussianBlur stdDeviation="7.63149 7.6463"/></filter><clipPath id="clip1"><rect x="1676" y="718" width="1048" height="1299"/></clipPath></defs><g clip-path="url(#clip1)" transform="translate(-1676 -718)"><rect x="1680" y="718" width="1040" height="1299" fill="#BFBFBF" fill-opacity="0.701961"/><path d="M1680 1238 1810 1238C1810 1453.11 1984.61 1627.5 2200 1627.5 2415.39 1627.5 2590 1453.11 2590 1238L2720 1238 2720 2017 1680 2017Z" fill="#FFFFFF" fill-rule="evenodd" fill-opacity="0.701961"/><text font-family="HarmonyOS Sans SC,HarmonyOS Sans SC_MSFontService,sans-serif" font-weight="700" font-size="128" transform="matrix(1 0 0 1 1753.13 1835)">禁止</text><text font-family="HarmonyOS Sans SC,HarmonyOS Sans SC_MSFontService,sans-serif" font-weight="700" font-size="128" transform="matrix(1 0 0 1 2009.79 1835)">复制</text><text font-family="HarmonyOS Sans,HarmonyOS Sans_MSFontService,sans-serif" font-weight="700" font-size="128" transform="matrix(1 0 0 1 2300.83 1835)">/ </text><text font-family="HarmonyOS Sans SC,HarmonyOS Sans SC_MSFontService,sans-serif" font-weight="700" font-size="128" transform="matrix(1 0 0 1 2390.21 1835)">转载</text><g filter="url(#fx0)" transform="matrix(8.00775 0 0 7.99225 1684 722)"><g><path d="M23.0402 64.5001C23.0402 41.6278 41.5459 23.0861 64.3739 23.0861L64.5013 23.0861C87.3293 23.0861 105.835 41.6278 105.835 64.5001L105.835 64.5001C105.835 87.3723 87.3292 105.914 64.5012 105.914L64.3739 105.914C41.5459 105.914 23.0402 87.3722 23.0402 64.5Z" fill="#FF6464" fill-rule="evenodd" fill-opacity="0.701961"/></g></g><path d="M1875 1237.5C1875 1058.28 2020.28 913 2199.5 913L2200.5 913C2379.72 913 2525 1058.28 2525 1237.5L2525 1237.5C2525 1416.72 2379.72 1562 2200.5 1562L2199.5 1562C2020.28 1562 1875 1416.72 1875 1237.5Z" fill="#FF6464" fill-rule="evenodd" fill-opacity="0.701961"/><g><g><g><path d="M964.032 710.113C964.032 545.474 1097.62 412.009 1262.42 412.009 1427.22 412.009 1560.81 545.474 1560.81 710.113 1560.81 874.75 1427.22 1008.22 1262.42 1008.22 1097.62 1008.22 964.032 874.75 964.032 710.113Z" fill="#FFFFFF" fill-rule="evenodd" transform="matrix(1.00066 0 0 1 936.75 527.387)"/><path d="M1232.07 586.717 1228.64 638.373 1228.3 645.224 1226.78 645.391C1151.74 653.935 1094.86 716.103 1094.86 792.239 1094.86 799.756 1095.44 807.187 1096.59 814.538 1101.31 844.848 1104.86 847.791 1126.56 822.721 1131.93 816.621 1137.82 810.963 1144.14 805.793 1166.85 787.557 1195.1 777.067 1224.53 775.925L1228.35 775.845 1229.39 796.038 1232.19 834.565C1233.55 847.774 1247.85 856.795 1261.01 849.582 1266.96 846.328 1272.76 842.845 1278.59 839.396 1308.81 821.028 1337.11 799.911 1364.67 777.979 1380.9 764.839 1395.11 752.381 1407.22 741.042 1412.79 735.74 1418.38 730.432 1423.77 724.946 1431.58 716.993 1432.36 703.829 1424.18 695.503 1405.34 676.36 1378.72 652.386 1345.59 626.953 1318.74 606.548 1290.97 587.491 1261.55 570.748 1247.39 562.91 1233.36 573.656 1232.07 586.717" fill-rule="evenodd" transform="matrix(1.00066 0 0 1 936.75 527.387)"/><path d="M1262.42 412.009C1427.22 412.009 1560.81 545.474 1560.81 710.113 1560.81 874.75 1427.22 1008.22 1262.42 1008.22 1097.62 1008.22 964.032 874.75 964.032 710.113 964.032 545.474 1097.62 412.009 1262.42 412.009ZM1051.43 920.903C1167.96 1037.32 1356.89 1037.32 1473.42 920.903 1589.95 804.484 1589.95 615.741 1473.42 499.321ZM1473.42 499.321C1356.89 382.905 1167.96 382.905 1051.43 499.321 934.898 615.741 934.898 804.484 1051.43 920.903Z" stroke="#FF0000" stroke-width="52.601" stroke-miterlimit="8" fill="none" fill-rule="evenodd" transform="matrix(1.00066 0 0 1 936.75 527.387)"/></g></g></g></g></svg>