<svg width="1138" height="1299" xmlns="http://www.w3.org/2000/svg" xmlns:xlink="http://www.w3.org/1999/xlink" xml:space="preserve" overflow="hidden"><g transform="translate(-1631 -588)"><path d="M2198.86 588.001C2210.55 587.961 2222.26 591.582 2232.16 598.871 2396.69 695.567 2562 790.944 2728.06 884.995 2755.21 897.527 2771.5 925.816 2768.69 955.573 2767.05 1146.11 2767 1336.68 2768.56 1527.29 2770.58 1551.53 2756.92 1574.37 2734.59 1584.04L2587.19 1669 2587.19 1437.8 2587.19 1334.02 2587.19 1161 2587.82 1050.18C2589.97 1025.7 2576.48 1002.51 2554.12 992.268 2388.51 897.444 2223.21 802.069 2057.91 706.694L2020 684.821C2073.3 653.607 2119.85 627.457 2165.62 599.095 2175.48 591.74 2187.16 588.04 2198.86 588.001Z" fill="#FFFFFF" fill-rule="evenodd"/><path d="M1843.59 792.001C1853.3 792.075 1862.98 795.125 1871.21 801.139 2042.24 900.95 2213.74 999.956 2385.7 1098.15 2400.4 1104.97 2410.67 1118.19 2414 1133.44L2415 1140.67 2415 1145.21 2414.92 1149.21C2414.54 1202.63 2414.5 1256.07 2414.62 1309.47L2415 1420.64 2415 1767.49 2332.23 1815.28C2292.03 1838.89 2250.65 1861.52 2205.56 1887 2205.01 1867.6 2204.85 1855.19 2204.81 1842.54 2204.74 1653.04 2203.89 1464.12 2205.27 1274.14 2207.93 1247.61 2193.53 1222.29 2169.37 1211.01 2064.08 1152.13 1959.95 1090.99 1855.38 1030.62 1844.71 1024.46 1833.28 1019.33 1814.49 1009.95 1813.11 1032.93 1811.44 1048.26 1811.36 1063.91 1811.41 1183.54 1813.01 1303.04 1811.24 1422.51 1808.43 1448.08 1822.55 1472.52 1846.12 1482.85 1891.73 1507.57 1934.95 1536.92 1981.55 1559.42 2021.75 1578.52 2040.76 1603.28 2036.04 1649.58 2031.33 1695.87 2034.87 1743.12 2034.13 1795.23 1900.28 1717.96 1772.37 1644.12 1646.08 1570.03 1637.03 1561.84 1632.01 1550.1 1632.35 1537.89 1631.49 1336.79 1632.32 1136.07 1631.14 934.773 1629.68 916.811 1639.9 899.946 1656.49 892.906 1710.21 863.162 1763.57 832.77 1815.83 800.718 1824.14 794.829 1833.88 791.928 1843.59 792.001Z" fill="#FFFFFF" fill-rule="evenodd"/></g></svg>